<svg xmlns="http://www.w3.org/2000/svg" width="3840" height="2160" viewBox="0 0 3840 2160" role="img" aria-labelledby="title desc">
  <title id="title">Resolution performance over time</title>
  <desc id="desc">A resolution performance chart showing average days to resolve and median days to resolve over nine months.</desc>
  <defs>
    <filter id="shadow" x="-10%" y="-10%" width="120%" height="120%">
      <feDropShadow dx="0" dy="18" stdDeviation="22" flood-color="#0f172a" flood-opacity="0.10"/>
    </filter>
    <style>
      text{font-family:Inter,Arial,sans-serif;letter-spacing:0}
      .title{font-size:75px;font-weight:850;fill:#13213a}
      .label{font-size:47px;font-weight:700;fill:#64748b}
      .axis{font-size:42px;font-weight:760;fill:#7b8799}
      .card{fill:#fff;stroke:#dbe4ef;stroke-width:4;filter:url(#shadow)}
      .grid{stroke:#e8eef5;stroke-width:3}
    </style>
  </defs>
  <rect width="3840" height="2160" fill="#fff"/>
  <g transform="translate(260 210)">
    <rect width="580" height="110" rx="8" fill="#dff8ec"/>
    <circle cx="88" cy="55" r="14" fill="#0f9f6e"/>
    <text x="140" y="70" fill="#047857" font-size="47" font-weight="850">Real client data</text>
  </g>
  <rect x="260" y="430" width="3320" height="1520" rx="8" class="card"/>
  <text x="340" y="580" class="title">Resolution performance over time</text>
  <circle cx="350" cy="700" r="18" fill="#6d5bd0"/><text x="390" y="714" class="label">Avg days to resolve</text>
  <circle cx="880" cy="700" r="18" fill="#31b883"/><text x="920" y="714" class="label">Median days to resolve</text>
  <g transform="translate(450 820)">
    <line x1="0" y1="0" x2="2820" y2="0" class="grid"/>
    <line x1="0" y1="195" x2="2820" y2="195" class="grid"/>
    <line x1="0" y1="390" x2="2820" y2="390" class="grid"/>
    <line x1="0" y1="585" x2="2820" y2="585" class="grid"/>
    <line x1="0" y1="780" x2="2820" y2="780" stroke="#cbd5e1" stroke-width="4"/>
    <line x1="0" y1="0" x2="0" y2="780" stroke="#cbd5e1" stroke-width="4"/>
    <text x="-72" y="13" class="axis">35</text>
    <text x="-72" y="208" class="axis">25</text>
    <text x="-72" y="403" class="axis">15</text>
    <text x="-48" y="598" class="axis">5</text>
    <text x="-48" y="793" class="axis">0</text>
    <polyline points="0,75 353,355 706,325 1059,405 1412,280 1765,355 2118,348 2471,500 2824,650" fill="none" stroke="#6d5bd0" stroke-width="13" stroke-linecap="round" stroke-linejoin="round"/>
    <polyline points="0,275 353,655 706,590 1059,655 1412,645 1765,642 2118,560 2471,620 2824,710" fill="none" stroke="#31b883" stroke-width="13" stroke-linecap="round" stroke-linejoin="round"/>
    <g fill="#6d5bd0">
      <circle cx="0" cy="75" r="20"/><circle cx="353" cy="355" r="20"/><circle cx="706" cy="325" r="20"/><circle cx="1059" cy="405" r="20"/><circle cx="1412" cy="280" r="20"/><circle cx="1765" cy="355" r="20"/><circle cx="2118" cy="348" r="20"/><circle cx="2471" cy="500" r="20"/><circle cx="2824" cy="650" r="20"/>
    </g>
    <g fill="#31b883">
      <circle cx="0" cy="275" r="20"/><circle cx="353" cy="655" r="20"/><circle cx="706" cy="590" r="20"/><circle cx="1059" cy="655" r="20"/><circle cx="1412" cy="645" r="20"/><circle cx="1765" cy="642" r="20"/><circle cx="2118" cy="560" r="20"/><circle cx="2471" cy="620" r="20"/><circle cx="2824" cy="710" r="20"/>
    </g>
    <g class="axis" text-anchor="middle">
      <text x="0" y="900">Month 1</text><text x="353" y="900">Month 2</text><text x="706" y="900">Month 3</text><text x="1059" y="900">Month 4</text><text x="1412" y="900">Month 5</text><text x="1765" y="900">Month 6</text><text x="2118" y="900">Month 7</text><text x="2471" y="900">Month 8</text><text x="2824" y="900">Month 9</text>
    </g>
  </g>
</svg>
